<?xml version="1.0" standalone="no"?>
<!DOCTYPE svg PUBLIC "-//W3C//DTD SVG 20010904//EN"
 "http://www.w3.org/TR/2001/REC-SVG-20010904/DTD/svg10.dtd">
<svg version="1.0" xmlns="http://www.w3.org/2000/svg"
 width="2048.000000pt" height="2048.000000pt" viewBox="0 0 2048.000000 2048.000000"
 preserveAspectRatio="xMidYMid meet">
<metadata>
Created by potrace 1.14, written by Peter Selinger 2001-2017
</metadata>
<g transform="translate(0.000000,2048.000000) scale(0.100000,-0.100000)"
fill="#000000" stroke="none">
<path d="M0 10240 l0 -10240 10240 0 10240 0 0 4291 c0 3633 -2 4290 -14 4280
-10 -9 -18 -7 -35 6 -20 17 -21 19 -6 41 13 18 20 20 36 12 19 -11 19 53 19
5920 l0 5930 -10240 0 -10240 0 0 -10240z m12698 9346 c4 -21 -14 -37 -35 -29
-14 5 -18 35 -6 47 12 12 38 1 41 -18z m1373 -87 c9 -9 18 -36 21 -60 5 -43 4
-45 -32 -61 -20 -10 -47 -18 -59 -18 -66 0 -84 127 -21 153 26 10 74 3 91 -14z
m-10241 -947 c0 -21 -39 -44 -64 -38 -47 12 -42 81 6 88 22 3 58 -28 58 -50z
m14765 -258 c50 -9 106 -22 125 -29 89 -32 107 -37 130 -42 34 -7 125 -35 249
-77 57 -20 115 -36 128 -36 50 0 128 -62 121 -97 -5 -27 -77 -40 -136 -23 -46
14 -312 17 -702 10 -74 -1 -191 1 -260 5 -96 5 -146 3 -209 -9 -46 -9 -101
-16 -123 -16 -22 0 -49 -5 -60 -11 -12 -6 -51 -16 -87 -21 -153 -22 -244 -43
-288 -66 -10 -5 -49 -15 -88 -23 -38 -7 -95 -25 -125 -40 -117 -57 -190 -89
-202 -89 -7 0 -22 -7 -32 -15 -14 -11 -45 -15 -104 -15 -79 0 -87 2 -144 37
-72 45 -82 61 -68 111 5 20 10 59 10 85 0 76 27 143 69 175 66 49 85 57 171
63 47 4 114 14 150 24 36 9 95 20 132 25 37 5 76 13 87 19 11 6 37 11 58 11
21 0 54 5 73 11 19 6 71 15 115 20 44 5 100 13 125 18 25 5 214 9 420 10 305
1 392 -2 465 -15z m-9357 -77 c2 -11 -3 -17 -17 -17 -23 0 -35 15 -26 31 10
15 39 6 43 -14z m-5635 -110 c10 -26 -6 -67 -32 -85 -33 -23 -65 -18 -90 14
-23 29 -18 59 17 96 l25 27 37 -19 c21 -11 40 -25 43 -33z m12471 4 c23 -26
46 -98 46 -146 0 -39 -4 -47 -49 -84 -59 -49 -88 -52 -166 -15 -54 26 -55 27
-55 69 0 48 39 142 70 170 21 19 91 34 122 27 9 -2 24 -12 32 -21z m-941 -77
c20 -20 39 -46 42 -58 17 -74 34 -181 40 -245 7 -78 28 -196 43 -246 6 -16 18
-59 28 -95 10 -36 24 -76 31 -90 7 -14 13 -30 13 -37 0 -6 24 -62 54 -125 29
-62 59 -131 66 -153 52 -162 223 -546 279 -624 10 -14 50 -82 88 -151 143
-256 210 -368 259 -430 27 -36 96 -135 154 -221 120 -178 240 -338 315 -420
29 -31 81 -92 116 -135 35 -44 80 -95 101 -114 20 -19 51 -53 68 -75 63 -79
219 -233 419 -411 24 -21 71 -67 105 -102 33 -35 76 -72 95 -84 20 -12 74 -58
121 -102 109 -104 280 -237 323 -252 49 -17 117 -53 155 -81 18 -14 65 -34
105 -45 40 -11 95 -28 122 -38 28 -10 82 -28 122 -39 49 -15 74 -28 78 -40 6
-19 -131 -264 -192 -343 -123 -161 -173 -219 -287 -334 -324 -325 -548 -569
-570 -620 -14 -31 -37 -52 -216 -200 -52 -44 -131 -113 -175 -154 -44 -42
-100 -92 -125 -112 -25 -19 -63 -53 -85 -74 -50 -47 -168 -146 -237 -196 -27
-20 -71 -56 -97 -80 -26 -24 -100 -86 -165 -138 -65 -52 -146 -118 -180 -145
-103 -85 -259 -193 -342 -236 -44 -23 -113 -65 -154 -93 -41 -29 -145 -88
-230 -132 -85 -43 -186 -97 -225 -119 -96 -57 -284 -139 -510 -224 -86 -32
-147 -58 -235 -98 -30 -14 -72 -31 -92 -39 -20 -7 -47 -19 -60 -27 -24 -16
-257 -96 -340 -117 -26 -7 -60 -9 -75 -5 -31 7 -174 86 -274 150 -36 24 -87
50 -114 60 -80 27 -192 86 -263 140 -70 52 -170 119 -261 176 -50 31 -142 104
-335 267 -133 112 -163 141 -222 215 -32 40 -90 106 -130 147 -41 41 -102 112
-136 156 -35 45 -95 123 -135 173 -42 54 -75 106 -78 125 -8 41 29 167 60 204
12 15 47 79 77 142 63 132 102 278 103 386 0 68 -1 72 -45 130 -59 79 -136
160 -174 183 -47 29 -163 41 -301 31 -81 -5 -124 -5 -133 3 -9 7 -19 7 -35 -1
-55 -27 -218 -70 -268 -71 -61 0 -119 27 -119 56 0 9 -11 28 -23 42 -13 15
-52 71 -86 126 -34 55 -79 124 -100 154 -21 29 -43 69 -51 90 -7 20 -18 50
-26 66 -42 97 -61 148 -74 205 -9 40 -26 91 -45 135 -52 119 -85 237 -95 340
-4 44 -13 100 -18 125 -15 65 -23 180 -27 395 -7 298 23 486 92 582 13 17 28
42 33 55 6 13 16 32 23 44 20 34 150 161 172 168 11 3 34 29 50 57 34 58 120
159 162 192 15 12 32 27 36 34 4 7 36 34 72 60 35 27 83 74 108 106 24 31 62
70 83 86 95 72 268 226 434 386 52 50 131 122 175 160 44 37 107 93 140 124
85 80 160 141 234 191 35 23 87 64 116 90 83 75 569 392 700 457 156 77 192
95 210 105 11 6 58 31 105 56 47 25 90 48 95 53 6 4 37 17 70 30 33 12 86 39
117 60 32 22 62 39 67 39 5 0 14 7 21 15 7 8 20 15 29 15 9 0 22 5 28 11 7 7
35 20 64 30 28 10 66 30 84 43 18 14 55 33 82 42 26 9 75 29 109 45 34 16 66
29 73 29 6 0 40 13 74 28 34 16 82 34 107 41 25 7 77 24 115 38 67 23 148 47
262 78 29 8 61 18 70 24 10 6 43 11 73 11 51 0 59 -3 93 -36z m-2905 -132 c3
-16 -2 -22 -16 -22 -24 0 -38 30 -20 42 19 12 33 4 36 -20z m4417 -1056 c67
-28 77 -88 38 -210 -34 -104 -83 -135 -183 -116 -70 13 -130 96 -101 141 6 10
11 28 11 39 0 24 59 91 114 132 44 31 71 35 121 14z m-7280 -891 c44 -8 122
-14 173 -15 174 0 476 -61 652 -130 118 -46 251 -90 274 -90 84 0 167 -159
123 -237 -7 -12 -66 -79 -132 -150 -148 -157 -200 -225 -263 -347 -21 -41
-126 -188 -197 -276 -108 -134 -166 -224 -241 -372 -18 -36 -45 -79 -59 -94
-14 -15 -42 -55 -62 -88 -20 -34 -53 -86 -73 -116 -124 -185 -232 -354 -264
-415 -21 -38 -51 -89 -67 -113 -40 -60 -59 -97 -75 -151 -7 -25 -27 -67 -43
-93 -32 -51 -69 -68 -146 -68 -22 0 -91 -9 -154 -20 -127 -22 -254 -26 -333
-9 -43 10 -78 8 -186 -6 -131 -18 -139 -18 -435 4 -166 12 -351 31 -412 41
-60 11 -173 26 -250 35 -77 9 -175 20 -218 25 -43 5 -115 18 -160 29 -210 51
-338 77 -542 111 -127 21 -262 65 -296 96 -9 8 -17 25 -16 37 0 12 -4 47 -8
78 -6 49 -4 64 17 110 14 30 41 73 59 96 19 23 56 70 83 105 27 35 71 86 97
114 25 27 54 66 64 85 30 57 117 160 217 254 52 50 123 126 158 170 35 44 79
97 99 118 56 60 257 218 351 276 47 29 102 69 124 88 21 19 84 65 140 101 55
36 126 84 156 108 30 23 89 62 130 85 41 23 100 61 130 84 50 38 97 68 285
185 152 95 330 178 450 210 39 11 98 30 132 44 35 13 94 29 131 35 89 14 308
58 347 70 45 14 150 12 240 -4z m8137 -257 c75 -81 83 -108 47 -163 -10 -16
-22 -37 -26 -45 -7 -17 -25 -38 -66 -81 -62 -63 -152 -57 -223 15 -58 58 -65
103 -28 198 31 81 61 115 110 124 19 3 37 10 40 15 3 5 22 9 42 9 32 0 44 -8
104 -72z m-13022 -359 c0 -5 -7 -9 -15 -9 -15 0 -20 12 -9 23 8 8 24 -1 24
-14z m-245 -429 c0 -8 -10 -16 -22 -18 -22 -3 -32 16 -16 32 12 11 38 2 38
-14z m14238 6 c74 -34 107 -87 107 -173 0 -67 -13 -90 -73 -134 -79 -57 -209
-32 -238 46 -5 17 -13 62 -16 100 -5 67 -4 72 23 104 31 37 94 69 137 70 15 1
42 -6 60 -13z m-14735 -1852 c4 -30 -21 -48 -47 -34 -21 11 -28 40 -14 54 15
15 58 1 61 -20z m7815 -596 c48 -10 69 -21 115 -63 l56 -51 -13 -50 c-40 -152
-129 -327 -220 -434 -26 -30 -69 -87 -94 -126 -26 -39 -78 -104 -115 -145 -37
-41 -89 -101 -117 -134 -74 -89 -315 -333 -352 -356 -27 -17 -38 -19 -72 -9
-22 6 -53 21 -68 33 -15 13 -48 35 -73 49 -54 31 -153 132 -250 254 -94 118
-200 335 -200 410 0 28 37 84 102 156 62 68 327 218 558 315 209 88 397 146
495 153 148 11 186 11 248 -2z m-1659 -834 c9 -8 16 -21 16 -29 0 -30 121
-247 178 -321 145 -184 305 -343 402 -396 33 -18 60 -37 60 -42 0 -23 -237
-237 -340 -306 -86 -58 -130 -93 -209 -166 -36 -34 -97 -82 -136 -107 -38 -25
-95 -67 -127 -93 -31 -27 -94 -71 -140 -98 -45 -27 -102 -62 -125 -78 -24 -16
-86 -49 -140 -74 -106 -49 -213 -112 -213 -125 0 -10 -146 -79 -167 -79 -7 0
-35 -11 -61 -24 -26 -13 -69 -31 -97 -39 -27 -8 -80 -29 -116 -46 -36 -17 -88
-37 -115 -45 -27 -8 -114 -39 -194 -70 -80 -30 -149 -56 -154 -56 -5 0 -34
-13 -65 -28 -56 -29 -99 -41 -179 -48 -37 -4 -47 -1 -73 25 -16 16 -29 37 -29
47 0 9 17 44 39 78 21 34 42 72 46 86 17 56 107 219 152 275 63 79 99 131 166
240 31 50 88 127 129 171 40 43 96 107 123 142 28 34 53 62 56 62 4 0 63 66
132 148 69 81 144 168 166 193 22 25 56 66 76 92 19 25 57 61 83 79 26 18 94
79 152 136 58 57 132 123 165 145 33 22 87 66 120 97 33 31 76 67 95 80 19 13
67 49 105 80 83 66 119 90 154 100 39 12 48 11 65 -6z m-7787 -540 c-3 -3 -12
-4 -19 -1 -8 3 -5 6 6 6 11 1 17 -2 13 -5z m-74 -11 c-7 -2 -19 -2 -25 0 -7 3
-2 5 12 5 14 0 19 -2 13 -5z m295 0 c-10 -2 -26 -2 -35 0 -10 3 -2 5 17 5 19
0 27 -2 18 -5z m-339 -7 c-2 -1 -19 -8 -36 -14 -37 -12 -45 -6 -10 8 22 9 54
13 46 6z m581 -5 c14 -5 -27 -6 -90 -4 -63 3 -119 6 -125 8 -21 7 191 3 215
-4z m63 -18 c-7 -2 -19 -2 -25 0 -7 3 -2 5 12 5 14 0 19 -2 13 -5z m-823 -63
c-8 -5 -19 -10 -25 -10 -5 0 -3 5 5 10 8 5 20 10 25 10 6 0 3 -5 -5 -10z
m-130 -65 c0 -2 -10 -9 -22 -15 -22 -11 -22 -10 -4 4 21 17 26 19 26 11z
m-100 -80 c-7 -8 -17 -15 -23 -15 -6 0 -2 7 9 15 25 19 30 19 14 0z m2610 -6
c-41 -11 -84 -18 -95 -16 -11 1 14 10 55 18 104 22 131 21 40 -2z m12308 -61
c18 -18 14 -46 -7 -58 -30 -15 -40 -12 -53 16 -11 22 -10 28 7 40 23 17 37 18
53 2z m-8178 -77 c5 -11 10 -34 10 -52 0 -28 -14 -46 -104 -133 -57 -56 -133
-140 -168 -187 -93 -127 -228 -321 -248 -360 -26 -48 -145 -304 -168 -364 -11
-27 -46 -111 -77 -185 -81 -194 -95 -237 -95 -289 0 -64 27 -111 80 -138 60
-31 112 -29 189 7 70 33 157 49 268 50 72 0 225 39 238 60 3 6 16 10 29 10 22
0 183 51 221 70 21 11 130 52 205 78 25 8 63 27 85 42 86 58 130 70 193 54 41
-11 29 -55 -30 -109 -28 -26 -63 -54 -77 -63 -14 -9 -32 -24 -38 -34 -7 -9
-30 -27 -50 -39 -21 -13 -46 -33 -56 -45 -9 -13 -33 -32 -52 -44 -19 -11 -37
-29 -40 -38 -3 -9 -24 -26 -46 -36 -23 -10 -61 -38 -84 -62 -23 -24 -45 -44
-49 -44 -4 0 -26 -18 -49 -40 -22 -22 -50 -43 -62 -46 -11 -3 -25 -15 -30 -26
-6 -12 -32 -32 -58 -46 -27 -14 -54 -36 -60 -49 -5 -12 -16 -23 -24 -23 -7 0
-16 -7 -19 -15 -4 -8 -11 -15 -18 -15 -6 0 -23 -12 -38 -27 -44 -47 -116 -113
-123 -113 -15 0 -85 -54 -90 -70 -3 -10 -13 -20 -23 -24 -31 -10 -81 -48 -156
-118 -27 -27 -55 -48 -61 -48 -7 0 -24 -13 -38 -30 -15 -16 -32 -30 -37 -30
-12 0 -50 -37 -50 -48 0 -4 -14 -16 -30 -26 -17 -9 -42 -28 -57 -42 -14 -13
-31 -24 -37 -24 -6 0 -20 -14 -31 -30 -11 -16 -26 -30 -33 -30 -6 0 -29 -18
-51 -40 -21 -22 -42 -40 -46 -40 -3 0 -27 -20 -52 -45 -24 -25 -51 -45 -59
-45 -9 0 -12 -4 -9 -10 3 -5 -1 -10 -9 -10 -8 0 -20 -9 -26 -20 -6 -11 -15
-20 -21 -20 -9 0 -25 -12 -90 -72 -49 -45 -116 -98 -123 -98 -6 0 -34 -25
-117 -105 -20 -19 -44 -35 -55 -35 -10 -1 -32 -19 -49 -40 -16 -21 -36 -39
-42 -40 -7 0 -27 -16 -44 -35 -18 -19 -47 -40 -66 -47 -20 -7 -36 -21 -39 -34
-3 -11 -20 -28 -39 -37 -18 -8 -52 -34 -76 -55 -24 -22 -62 -56 -84 -76 -21
-20 -44 -36 -50 -36 -6 0 -31 -19 -56 -42 -25 -24 -61 -54 -79 -68 -19 -14
-48 -40 -65 -57 -17 -18 -36 -33 -42 -33 -6 0 -18 -11 -27 -25 -9 -14 -22 -25
-30 -25 -7 0 -35 -21 -63 -47 -63 -60 -80 -73 -92 -73 -6 0 -14 -6 -18 -12
-10 -16 -100 -95 -144 -128 -19 -13 -56 -45 -82 -70 -26 -25 -68 -63 -93 -85
-25 -22 -66 -60 -90 -85 l-46 -45 49 -8 c26 -4 90 -9 142 -10 86 -3 95 -5 115
-28 l22 -26 253 -5 c164 -4 257 -10 264 -17 14 -14 144 -15 152 -1 3 6 26 10
50 10 47 0 55 -9 55 -65 0 -35 -25 -70 -120 -166 -25 -25 -64 -68 -86 -95 -23
-27 -65 -62 -94 -78 l-53 -29 -271 -3 c-317 -3 -459 -13 -448 -31 9 -14 105
-68 192 -109 30 -14 63 -29 72 -35 10 -5 26 -9 37 -9 10 0 24 -7 31 -15 7 -8
23 -15 35 -15 13 0 25 -7 29 -15 3 -9 18 -15 35 -15 16 0 31 -6 35 -15 3 -8
14 -15 25 -15 11 0 24 -6 28 -14 12 -19 48 -36 78 -36 14 0 28 -7 31 -15 4 -8
16 -15 28 -15 12 0 31 -7 42 -15 10 -8 29 -15 40 -15 12 0 27 -7 34 -15 7 -8
27 -15 45 -15 18 0 38 -7 45 -15 7 -8 21 -15 32 -15 10 0 21 -7 24 -15 4 -10
20 -15 45 -15 21 0 39 -4 39 -9 0 -5 10 -13 23 -17 12 -4 36 -18 54 -31 17
-13 41 -25 52 -26 12 -1 21 -7 21 -14 0 -8 13 -13 36 -13 20 0 48 -6 62 -14
28 -15 106 -39 133 -42 25 -2 109 -45 109 -55 0 -5 13 -9 29 -9 16 0 49 -11
72 -25 24 -14 51 -25 60 -25 9 0 22 -7 29 -15 7 -8 29 -15 50 -15 21 0 43 -7
50 -15 7 -8 18 -15 24 -15 6 0 19 -9 29 -20 9 -11 22 -20 29 -20 18 0 41 -55
34 -78 -4 -10 -18 -30 -32 -43 -24 -23 -32 -24 -131 -22 -58 1 -110 6 -117 11
-6 5 -33 12 -59 15 -26 2 -56 12 -66 21 -12 11 -34 16 -67 15 -27 -1 -59 3
-71 9 -13 7 -71 12 -146 12 -99 0 -127 3 -137 15 -9 10 -32 15 -74 15 -38 1
-68 6 -80 15 -13 10 -43 15 -83 15 -35 0 -71 4 -81 10 -9 5 -43 12 -74 15 -32
4 -60 11 -63 16 -4 5 -19 9 -35 9 -15 0 -30 7 -34 15 -3 9 -18 15 -35 15 -16
0 -36 7 -45 15 -8 8 -21 15 -28 15 -8 0 -31 9 -53 20 -22 11 -45 20 -52 20 -7
0 -13 5 -13 10 0 6 -15 10 -34 10 -18 0 -39 7 -46 15 -7 8 -29 15 -49 15 -20
1 -50 9 -68 18 -90 48 -122 61 -160 64 -30 2 -43 0 -43 -9 0 -7 4 -13 10 -13
5 0 16 -15 23 -32 8 -18 21 -39 30 -47 10 -7 17 -20 17 -27 0 -16 129 -154
144 -154 16 -1 51 -32 65 -58 7 -13 21 -22 36 -22 13 0 30 -7 39 -15 8 -8 17
-15 19 -15 2 0 25 -19 49 -43 62 -58 169 -151 179 -155 5 -2 9 -9 9 -16 0 -6
16 -20 35 -30 19 -11 35 -23 35 -28 0 -19 5 -24 42 -52 35 -26 39 -32 36 -68
-2 -32 -9 -43 -33 -56 -16 -9 -34 -23 -38 -30 -10 -15 -58 -5 -70 15 -4 7 -13
13 -20 13 -7 0 -30 16 -52 35 -22 19 -49 35 -61 35 -12 0 -27 7 -34 15 -7 8
-18 15 -25 15 -6 0 -25 11 -41 25 -22 19 -40 25 -74 25 -26 0 -63 9 -85 20
-22 11 -45 20 -52 20 -8 0 -16 7 -19 15 -4 8 -14 15 -25 15 -10 0 -22 6 -26
14 -4 7 -46 33 -92 57 -46 24 -85 49 -88 56 -3 7 -16 13 -29 13 -13 0 -24 5
-24 10 0 6 -7 10 -16 10 -9 0 -42 16 -74 35 -32 19 -62 35 -68 35 -5 0 -12 7
-16 15 -3 8 -16 15 -30 15 -14 0 -28 5 -31 10 -7 12 -45 14 -45 3 0 -5 7 -29
14 -55 8 -25 12 -49 9 -52 -4 -3 -1 -6 6 -6 8 0 11 -11 10 -28 -2 -15 2 -37 9
-49 7 -12 12 -37 12 -56 0 -19 7 -48 15 -63 9 -18 15 -56 15 -97 0 -62 -3 -71
-29 -98 -40 -39 -91 -40 -132 -2 -16 16 -29 34 -29 40 0 7 -4 13 -10 13 -5 0
-10 4 -10 9 0 6 -13 30 -30 54 -16 25 -30 48 -30 52 0 4 -14 24 -30 45 -17 21
-30 45 -30 53 0 8 -18 33 -39 56 -47 50 -81 105 -81 132 0 10 -4 19 -8 19 -10
0 -42 71 -42 93 0 9 -4 18 -9 21 -5 3 -12 17 -15 30 -8 33 -71 127 -79 119 -4
-3 -7 -57 -7 -119 0 -62 -4 -115 -8 -118 -5 -3 -12 -44 -15 -91 -5 -70 -10
-91 -32 -118 -24 -33 -25 -40 -25 -170 0 -149 -13 -203 -58 -242 -23 -20 -24
-27 -28 -180 -3 -88 -9 -164 -14 -169 -6 -6 -10 -29 -10 -52 0 -44 -6 -53 -77
-127 -32 -32 -63 -32 -78 1 -5 12 -18 22 -27 22 -31 0 -37 33 -35 201 2 130 6
171 19 199 11 23 19 71 22 140 3 58 8 158 12 224 4 80 2 122 -5 129 -13 13
-15 112 -2 135 5 9 11 88 14 175 2 87 7 160 11 164 8 8 6 146 -3 203 l-7 45
-17 -32 c-9 -17 -26 -34 -37 -38 -13 -4 -20 -15 -20 -30 0 -34 -10 -55 -26
-55 -8 0 -14 -7 -14 -15 0 -8 -4 -15 -9 -15 -5 0 -17 -18 -27 -40 -10 -22 -21
-40 -24 -40 -4 0 -28 -34 -55 -75 -26 -41 -52 -75 -57 -75 -5 0 -12 -8 -15
-17 -15 -42 -144 -182 -169 -184 -62 -6 -89 2 -101 28 -15 32 -17 103 -3 103
6 0 10 13 10 30 0 19 7 34 20 42 11 7 20 20 20 28 0 8 9 26 20 40 11 14 20 39
20 57 0 19 7 37 18 45 11 7 24 37 31 68 7 30 16 66 21 80 5 14 11 37 14 51 3
14 17 38 31 53 17 18 28 44 31 74 l6 47 -40 -42 c-22 -24 -45 -43 -50 -43 -6
0 -30 -18 -54 -40 -24 -22 -48 -40 -54 -40 -6 0 -41 -22 -77 -50 -36 -27 -73
-50 -81 -50 -7 0 -27 -15 -42 -34 -16 -18 -40 -47 -54 -63 -31 -36 -60 -47
-104 -39 -38 7 -56 37 -56 95 0 41 16 77 72 162 20 31 40 68 43 81 4 14 17 36
31 51 13 14 24 32 24 39 0 7 7 22 15 32 8 11 15 28 15 38 0 10 11 28 25 39 13
12 27 35 30 50 4 16 10 29 15 29 5 0 11 13 15 28 3 15 17 40 30 55 14 14 25
29 25 33 0 4 10 18 22 31 25 26 17 43 -12 25 -11 -7 -37 -12 -58 -12 -26 0
-45 -7 -57 -20 -10 -11 -25 -20 -33 -20 -27 0 -136 -44 -154 -62 -10 -10 -31
-18 -47 -18 -16 0 -31 -6 -34 -14 -3 -7 -26 -16 -52 -19 -26 -4 -59 -16 -75
-27 -16 -11 -42 -23 -59 -26 -17 -4 -31 -10 -31 -15 0 -5 -17 -9 -38 -9 -21 0
-47 -7 -58 -15 -10 -8 -27 -15 -37 -15 -10 0 -20 -7 -23 -15 -5 -11 -21 -15
-59 -15 -30 0 -56 -4 -59 -9 -3 -5 -37 -9 -75 -9 -78 0 -134 -16 -171 -47 -18
-16 -41 -22 -87 -24 l-62 -3 -16 38 c-21 51 -12 108 21 132 47 32 139 107 142
115 2 4 9 7 15 7 7 0 23 9 37 20 14 11 32 20 41 20 9 0 24 9 34 20 10 11 23
20 28 20 6 0 17 7 26 15 51 46 61 55 66 55 3 0 27 14 53 30 27 17 54 30 60 30
6 0 31 20 55 45 30 30 53 45 71 45 15 0 30 8 35 19 6 10 24 24 41 29 16 6 30
16 30 21 0 6 13 11 30 11 18 0 33 7 39 19 12 21 92 71 115 71 8 0 23 11 34 25
11 14 28 25 38 25 11 0 28 7 38 15 11 8 28 15 39 15 10 0 15 5 12 10 -8 13
-262 13 -267 0 -4 -14 -183 -16 -200 -3 -7 6 -54 14 -103 17 -214 12 -299 22
-303 34 -3 9 -41 12 -135 12 -73 0 -142 3 -154 6 -12 3 -34 26 -49 51 l-26 45
29 29 c16 17 39 29 54 29 15 0 29 7 33 15 4 10 20 15 52 15 30 0 54 6 66 16
11 11 47 20 95 25 43 4 107 11 143 15 36 4 74 13 85 20 11 8 39 14 62 14 24 0
43 5 43 10 0 6 10 10 23 10 12 0 28 4 35 8 19 12 -23 30 -82 36 -26 2 -53 9
-59 15 -6 6 -34 11 -61 11 -83 0 -209 22 -238 42 -15 10 -44 18 -67 18 -26 0
-44 5 -47 14 -4 9 -33 16 -92 21 -68 6 -89 11 -100 26 -9 13 -25 19 -49 19
-19 0 -49 6 -66 14 -18 8 -65 19 -106 25 -66 9 -79 14 -106 44 -27 29 -30 40
-27 76 4 38 8 45 40 58 50 21 291 14 342 -9 37 -18 51 -19 305 -38 88 -7 162
-16 165 -20 3 -4 50 -10 105 -11 l100 -4 -23 23 c-13 12 -28 22 -35 22 -7 0
-21 6 -32 14 -11 7 -50 15 -87 18 -50 3 -73 9 -90 25 -31 28 -76 50 -121 58
-21 4 -45 18 -56 31 -12 16 -29 24 -49 24 -16 0 -35 7 -42 15 -7 8 -25 15 -41
15 -19 0 -38 10 -56 30 -19 22 -35 30 -59 30 -18 0 -36 5 -39 10 -3 6 -17 10
-30 10 -14 0 -29 9 -35 20 -6 11 -20 20 -30 20 -11 0 -20 5 -20 10 0 6 -15 10
-33 10 -18 0 -42 7 -53 15 -10 8 -31 15 -45 15 -15 0 -32 7 -39 16 -17 20 -75
44 -107 44 -13 0 -31 7 -39 15 -9 8 -24 15 -34 15 -11 0 -23 6 -27 13 -9 14
-71 35 -116 39 -15 2 -27 7 -26 12 1 13 -22 26 -47 26 -24 0 -56 56 -56 96 0
40 44 90 74 85 5 0 8 3 8 9 0 12 43 14 54 3 8 -8 13 -9 40 -12 8 0 21 -7 28
-15 10 -9 61 -15 178 -20 91 -4 169 -12 174 -17 6 -5 26 -9 46 -9 32 0 76 -20
91 -43 4 -5 55 -11 114 -14 76 -4 108 -10 112 -19 3 -9 22 -14 52 -14 33 0 57
-7 83 -25 34 -23 47 -25 141 -25 75 0 108 -4 123 -15 10 -8 40 -15 67 -15 32
0 53 -6 65 -18 18 -18 48 -24 192 -38 19 -2 46 -8 60 -13 38 -14 101 -21 95
-10 -4 5 -12 9 -20 9 -7 0 -16 9 -20 19 -3 11 -12 22 -20 25 -8 3 -15 12 -15
21 0 8 -6 15 -14 15 -7 0 -25 18 -40 40 -14 22 -82 96 -151 165 -69 69 -125
130 -125 135 0 6 -5 10 -11 10 -7 0 -33 21 -58 48 -57 58 -130 122 -140 122
-4 0 -16 10 -27 21 -10 12 -42 37 -70 55 -28 18 -61 46 -75 63 -13 17 -29 31
-36 31 -6 0 -23 14 -36 30 -14 17 -30 30 -36 30 -5 0 -24 18 -41 40 -17 22
-40 40 -51 40 -11 0 -21 9 -25 25 -4 16 -17 28 -39 35 -19 6 -52 29 -73 51
-22 21 -48 39 -58 39 -19 0 -57 60 -67 108 -8 33 46 92 83 92 16 0 32 -4 35
-10 3 -5 16 -10 29 -10 13 0 31 -9 41 -20 10 -11 24 -20 32 -20 7 0 13 -4 13
-10 0 -5 11 -10 24 -10 13 0 26 -7 30 -15 3 -8 22 -23 43 -33 21 -9 40 -19 43
-22 3 -3 22 -16 42 -30 21 -14 38 -28 38 -32 0 -3 13 -9 28 -13 15 -3 40 -17
56 -30 16 -13 37 -27 47 -30 11 -4 19 -11 19 -16 0 -5 9 -9 20 -9 11 0 20 -4
20 -10 0 -5 7 -10 15 -10 20 0 91 -36 132 -66 17 -13 38 -24 45 -24 7 0 34
-11 59 -23 l45 -22 -13 26 c-7 15 -20 32 -28 39 -8 7 -15 18 -15 24 0 20 -35
82 -74 129 -21 25 -39 53 -40 60 -1 8 -19 35 -39 60 -20 25 -37 48 -37 51 0 4
-16 20 -35 37 -19 17 -35 36 -35 43 0 7 -18 30 -40 51 -22 21 -40 43 -40 48 0
5 -16 27 -35 48 -42 47 -44 77 -8 114 24 23 34 26 68 22 27 -3 51 -13 68 -31
14 -14 31 -26 37 -26 5 0 10 -6 10 -13 0 -7 8 -22 18 -33 10 -10 40 -46 68
-79 27 -33 68 -78 90 -101 21 -22 52 -56 67 -75 47 -57 60 -69 77 -69 10 0 29
-20 45 -44 17 -27 40 -48 61 -56 19 -8 36 -22 40 -32 3 -10 11 -18 18 -18 7 0
21 -17 32 -37 24 -47 38 -63 58 -63 18 0 22 35 6 45 -5 3 -10 17 -10 30 0 13
-4 27 -10 30 -5 3 -10 17 -10 30 0 12 -6 25 -14 28 -8 3 -23 23 -32 44 -10 21
-24 44 -31 51 -7 7 -13 20 -13 28 0 8 -4 14 -9 14 -5 0 -15 16 -21 35 -6 19
-22 56 -36 82 -13 26 -24 56 -24 66 0 9 -4 17 -10 17 -5 0 -12 11 -16 25 -3
14 -10 25 -15 25 -5 0 -9 9 -9 20 0 11 -4 20 -9 20 -9 0 -81 139 -81 157 0 6
-7 16 -15 23 -8 7 -15 24 -15 39 0 15 -5 32 -11 38 -7 7 -20 35 -30 64 -11 29
-23 55 -27 58 -5 3 -11 13 -15 21 -8 17 -30 53 -37 60 -3 3 -13 21 -23 40 -36
67 -52 95 -64 107 -6 7 -15 22 -18 33 -3 11 -10 20 -15 20 -5 0 -14 17 -21 38
-6 20 -18 44 -25 52 -7 8 -22 25 -34 38 -12 13 -20 36 -20 57 0 23 -5 35 -14
35 -7 0 -25 15 -40 34 -23 30 -26 44 -26 108 0 73 0 74 30 85 16 6 32 8 35 3
2 -4 21 -10 41 -13 39 -7 74 -32 74 -54 0 -7 8 -13 17 -13 23 0 63 -39 63 -62
0 -10 6 -18 14 -18 17 0 76 -54 76 -69 0 -6 5 -11 10 -11 17 0 70 -56 70 -74
0 -9 8 -16 18 -16 18 0 72 -51 72 -69 0 -6 10 -16 22 -22 26 -14 57 -49 58
-65 0 -6 13 -17 30 -24 16 -7 32 -21 35 -31 4 -10 11 -19 16 -19 5 0 9 -6 9
-13 0 -8 11 -20 25 -27 13 -7 29 -26 34 -42 6 -17 20 -32 31 -35 11 -3 20 -10
20 -15 0 -5 4 -7 8 -4 5 3 14 -9 20 -27 6 -18 25 -40 42 -49 17 -10 36 -31 41
-48 7 -18 18 -30 29 -30 10 0 25 -11 34 -25 25 -39 163 -182 189 -196 9 -5 29
-28 43 -51 21 -32 24 -48 19 -77 -9 -50 -31 -80 -71 -97 -33 -14 -72 -59 -61
-70 8 -8 107 17 134 34 15 9 43 13 83 10 58 -3 61 -2 80 29 10 17 47 50 82 74
53 35 73 42 126 47 34 2 62 9 62 14 0 4 18 28 41 52 31 35 57 50 117 72 42 15
84 33 93 41 36 30 130 5 129 -35 -2 -47 -103 -158 -207 -224 -23 -15 -48 -40
-55 -55 -10 -21 -22 -29 -49 -33 -25 -3 -45 -15 -64 -38 -16 -19 -60 -59 -99
-90 -39 -30 -89 -72 -111 -91 -23 -20 -100 -85 -173 -144 -126 -103 -168 -147
-141 -147 15 0 224 113 389 211 74 44 155 89 180 100 25 11 52 24 60 29 8 5
49 28 90 51 41 24 89 58 106 78 l31 35 44 -14 c63 -21 79 -41 79 -99 0 -28 5
-53 10 -56 6 -3 10 -42 10 -85 0 -63 3 -81 18 -92 29 -22 40 -59 47 -148 12
-170 40 -409 44 -368 0 9 17 26 36 38 19 12 35 26 35 31 0 5 7 9 17 9 9 0 33
18 54 40 21 21 49 42 63 46 14 3 26 13 26 20 0 8 12 20 28 27 15 6 31 17 35
24 4 7 16 13 26 13 10 0 24 11 31 25 7 14 17 25 21 25 4 0 43 27 87 60 43 33
84 60 90 60 6 0 17 9 25 20 13 18 42 43 117 100 18 14 49 37 68 53 19 15 41
27 48 27 7 0 18 9 24 20 6 11 25 27 42 36 17 9 46 31 65 50 18 19 38 34 43 34
5 0 24 14 42 30 18 17 36 30 40 30 4 0 23 16 42 35 20 19 38 35 41 35 8 0 104
72 131 98 11 10 30 25 42 31 22 12 38 25 100 81 19 16 38 30 44 30 6 0 27 14
47 31 20 16 65 54 101 82 71 56 91 73 121 100 10 9 28 17 38 17 11 0 29 13 40
29 12 16 41 39 66 51 24 12 47 29 50 39 3 10 26 28 51 40 25 13 50 33 56 45 6
14 29 29 57 40 31 11 52 26 59 42 7 13 17 24 24 24 7 0 42 25 78 56 35 31 77
61 92 66 15 5 30 17 33 26 3 10 22 28 42 42 55 36 117 84 121 93 2 4 10 7 17
7 8 0 19 9 25 20 6 12 22 25 36 30 13 5 24 16 24 25 0 8 9 15 19 15 32 0 51
11 51 30 0 12 10 21 29 25 15 3 41 20 57 36 16 17 52 46 79 64 28 19 75 57
105 84 30 28 60 51 65 51 6 0 28 16 50 35 22 19 43 35 47 35 4 0 28 20 55 45
26 24 53 45 58 45 6 0 29 18 52 40 23 21 60 48 83 60 22 11 40 24 40 29 0 5
25 26 55 46 30 21 55 42 55 47 0 4 4 8 9 8 6 0 25 14 43 30 18 17 37 30 43 30
6 0 30 18 53 39 23 22 63 50 89 63 25 13 52 33 60 45 13 20 30 29 60 32 7 0
17 -8 23 -18z m-4500 -55 c0 -2 -8 -10 -17 -17 -16 -13 -17 -12 -4 4 13 16 21
21 21 13z m-440 -53 c0 -7 -39 17 -46 28 -3 6 5 3 20 -6 14 -10 26 -19 26 -22z
m-2187 -168 c-3 -9 -8 -14 -10 -11 -3 3 -2 9 2 15 9 16 15 13 8 -4z m24 -187
c-3 -8 -6 -5 -6 6 -1 11 2 17 5 13 3 -3 4 -12 1 -19z m-120 -50 c-3 -7 -5 -2
-5 12 0 14 2 19 5 13 2 -7 2 -19 0 -25z m-66 -139 c-5 -13 -10 -19 -10 -12 -1
15 10 45 15 40 3 -2 0 -15 -5 -28z m13608 -86 c20 -17 21 -27 23 -203 1 -102
-4 -214 -10 -250 -6 -36 -14 -180 -17 -320 -5 -260 -18 -446 -37 -535 -18 -86
-82 -195 -180 -306 -105 -117 -286 -298 -338 -337 -19 -14 -73 -65 -120 -112
-47 -48 -111 -103 -142 -123 -31 -20 -83 -59 -115 -87 -32 -27 -62 -50 -66
-50 -5 0 -39 -23 -75 -50 -246 -186 -546 -373 -828 -516 -102 -51 -197 -102
-210 -113 -46 -36 -304 -161 -333 -161 -23 0 -276 -115 -331 -150 -52 -34
-286 -110 -337 -110 -17 0 -41 9 -54 19 -22 18 -24 26 -24 118 0 99 17 194 85
478 16 66 40 190 54 275 15 85 33 177 41 203 8 26 21 94 30 150 8 56 24 131
35 167 11 36 29 108 39 160 11 52 28 122 39 155 11 33 28 100 37 149 14 75 56
219 106 361 38 107 72 220 84 280 8 39 21 97 29 130 8 33 18 81 21 107 4 29
14 55 29 70 31 30 138 64 251 78 50 7 112 16 138 21 26 5 69 9 95 9 26 0 94 9
152 21 220 43 247 48 325 59 44 6 107 18 140 25 33 8 85 18 115 23 81 14 296
60 365 78 130 34 172 46 231 65 33 10 74 19 91 19 16 0 51 11 77 25 26 14 61
25 78 25 18 0 41 9 52 19 12 10 46 29 76 42 30 13 81 38 113 57 89 52 224 69
266 35z m-13585 -78 c3 -8 1 -15 -4 -15 -6 0 -10 7 -10 15 0 8 2 15 4 15 2 0
6 -7 10 -15z m2896 -111 c6 -14 10 -48 10 -76 0 -42 4 -54 26 -73 21 -18 27
-34 31 -84 3 -34 10 -64 14 -67 5 -3 9 -61 9 -129 0 -68 4 -126 9 -130 11 -6
-6 -60 -29 -91 -8 -12 -26 -27 -40 -34 -14 -7 -35 -21 -46 -32 -17 -15 -33
-18 -75 -16 l-54 3 -10 42 c-6 23 -13 45 -18 49 -13 13 -9 638 5 652 7 7 42
12 85 12 70 0 74 -1 83 -26z m-2983 -16 c-3 -7 -5 -2 -5 12 0 14 2 19 5 13 2
-7 2 -19 0 -25z m9263 22 c0 -5 -2 -10 -4 -10 -3 0 -8 5 -11 10 -3 6 -1 10 4
10 6 0 11 -4 11 -10z m-6790 -90 c16 -16 30 -35 30 -43 0 -7 7 -22 15 -33 8
-10 15 -38 15 -60 0 -23 7 -55 15 -70 8 -16 15 -37 15 -46 0 -10 4 -18 9 -18
5 0 12 -12 16 -27 3 -15 11 -30 15 -33 5 -3 10 -20 12 -38 1 -18 8 -38 15 -44
7 -6 13 -16 13 -23 0 -7 7 -18 15 -25 8 -7 15 -21 15 -32 0 -11 18 -56 40
-100 22 -44 40 -90 40 -103 0 -33 -39 -84 -95 -124 -52 -36 -86 -42 -137 -22
-28 10 -28 12 -28 98 -1 60 -5 94 -15 107 -7 10 -17 44 -21 75 -5 37 -13 60
-25 69 -15 10 -19 26 -19 76 0 42 -7 76 -20 104 -11 22 -20 52 -20 65 0 13
-10 34 -22 47 -30 32 -40 158 -14 179 9 7 16 19 16 27 0 12 22 20 67 23 13 0
36 -12 53 -29z m-2473 -32 c-3 -8 -6 -5 -6 6 -1 11 2 17 5 13 3 -3 4 -12 1
-19z m0 -90 c-2 -13 -4 -5 -4 17 -1 22 1 32 4 23 2 -10 2 -28 0 -40z m8735
-172 c7 4 8 2 4 -5 -9 -13 -26 -5 -25 12 0 9 2 8 6 -1 2 -6 10 -9 15 -6z m-57
-126 c3 -5 1 -10 -4 -10 -6 0 -11 5 -11 10 0 6 2 10 4 10 3 0 8 -4 11 -10z
m-5 -110 c0 -5 -4 -10 -10 -10 -5 0 -10 5 -10 10 0 6 5 10 10 10 6 0 10 -4 10
-10z m-5223 -106 c-3 -3 -12 -4 -19 -1 -8 3 -5 6 6 6 11 1 17 -2 13 -5z m53 2
c0 -2 -7 -7 -16 -10 -8 -3 -12 -2 -9 4 6 10 25 14 25 6z m4730 -186 c0 -5 -2
-10 -4 -10 -3 0 -8 5 -11 10 -3 6 -1 10 4 10 6 0 11 -4 11 -10z m-8520 -424
c0 -2 -8 -10 -17 -17 -16 -13 -17 -12 -4 4 13 16 21 21 21 13z m8250 -70 c0
-2 -8 -10 -17 -17 -16 -13 -17 -12 -4 4 13 16 21 21 21 13z m-80 -80 c0 -2 -8
-10 -17 -17 -16 -13 -17 -12 -4 4 13 16 21 21 21 13z m-72 -76 c-7 -11 -17
-20 -22 -20 -5 0 -1 9 9 20 10 11 20 20 22 20 2 0 -2 -9 -9 -20z m-8427 -73
l-24 -22 19 27 c10 14 21 24 23 22 3 -3 -6 -15 -18 -27z m15340 -83 c9 -11 10
-20 2 -32 -13 -22 -43 -22 -56 -1 -24 38 25 68 54 33z m-15475 -150 c-4 -9 -9
-15 -11 -12 -3 3 -3 13 1 22 4 9 9 15 11 12 3 -3 3 -13 -1 -22z m-20 -70 c-4
-20 -10 -34 -12 -31 -3 3 -2 21 2 41 3 21 9 35 11 32 3 -3 2 -21 -1 -42z m-19
-76 c-3 -7 -5 -2 -5 12 0 14 2 19 5 13 2 -7 2 -19 0 -25z m8135 10 c-7 -7 -12
-8 -12 -2 0 14 12 26 19 19 2 -3 -1 -11 -7 -17z m-292 -262 c0 -2 -8 -10 -17
-17 -16 -13 -17 -12 -4 4 13 16 21 21 21 13z m10425 -52 c0 -10 -8 -20 -17
-22 -18 -3 -26 27 -11 42 12 11 28 0 28 -20z m-10585 -98 c0 -2 -8 -10 -17
-17 -16 -13 -17 -12 -4 4 13 16 21 21 21 13z m-7652 -206 c-1 -21 -36 121 -36
145 0 11 8 -14 19 -55 10 -41 18 -82 17 -90z m8219 54 c-3 -3 -12 -4 -19 -1
-8 3 -5 6 6 6 11 1 17 -2 13 -5z m-8027 -45 c0 -6 -4 -7 -10 -4 -5 3 -10 11
-10 16 0 6 5 7 10 4 6 -3 10 -11 10 -16z m25 -109 c-3 -5 -12 -10 -18 -10 -7
0 -6 4 3 10 19 12 23 12 15 0z m8115 -44 c0 -26 -6 -18 -14 19 -5 22 -4 26 4
15 5 -8 10 -24 10 -34z m-8006 -12 c3 -8 2 -12 -4 -9 -6 3 -10 10 -10 16 0 14
7 11 14 -7z m-44 -8 c0 -3 -4 -8 -10 -11 -5 -3 -10 -1 -10 4 0 6 5 11 10 11 6
0 10 -2 10 -4z m8057 -58 c-2 -13 -4 -5 -4 17 -1 22 1 32 4 23 2 -10 2 -28 0
-40z m-8007 -8 c0 -5 -4 -10 -10 -10 -5 0 -10 5 -10 10 0 6 5 10 10 10 6 0 10
-4 10 -10z m8018 -150 c-1 -28 -2 -25 -8 15 -5 28 -8 66 -8 85 1 28 2 25 8
-15 5 -27 8 -66 8 -85z m-257 -13 c-10 -9 -11 -8 -5 6 3 10 9 15 12 12 3 -3 0
-11 -7 -18z m-7852 -51 c-3 -3 -11 5 -18 17 -13 21 -12 21 5 5 10 -10 16 -20
13 -22z m8118 -28 c-2 -13 -4 -5 -4 17 -1 22 1 32 4 23 2 -10 2 -28 0 -40z
m-8027 -44 c0 -2 -9 0 -20 6 -11 6 -20 13 -20 16 0 2 9 0 20 -6 11 -6 20 -13
20 -16z m8014 -46 c-7 -85 -24 -159 -34 -153 -5 3 -2 21 6 40 8 19 14 52 14
73 0 41 10 102 16 102 2 0 1 -28 -2 -62z m-7880 -27 c4 -5 -3 -7 -14 -4 -23 6
-26 13 -6 13 8 0 17 -4 20 -9z m183 -67 c-3 -3 -12 -4 -19 -1 -8 3 -5 6 6 6
11 1 17 -2 13 -5z m440 -30 c-3 -3 -12 -4 -19 -1 -8 3 -5 6 6 6 11 1 17 -2 13
-5z m7087 -240 c3 -8 2 -12 -4 -9 -6 3 -10 10 -10 16 0 14 7 11 14 -7z m-1839
-34 c-3 -5 -12 -10 -18 -10 -7 0 -6 4 3 10 19 12 23 12 15 0z m1786 -23 c-1
-12 -15 -9 -19 4 -3 6 1 10 8 8 6 -3 11 -8 11 -12z m72 -72 c-3 -9 -8 -14 -10
-11 -3 3 -2 9 2 15 9 16 15 13 8 -4z m-1514 -89 c8 -6 64 -13 125 -16 109 -5
112 -5 149 -39 20 -19 37 -43 37 -54 0 -25 -46 -87 -64 -87 -8 0 -19 -7 -26
-15 -9 -10 -32 -15 -75 -15 -34 0 -79 -7 -98 -15 -20 -8 -52 -15 -71 -15 -19
0 -38 -4 -41 -10 -3 -5 -39 -10 -78 -10 -55 0 -79 -5 -102 -20 -24 -16 -47
-20 -112 -20 -45 0 -84 -4 -87 -9 -3 -5 -29 -11 -58 -14 -69 -7 -89 -12 -128
-32 l-33 -17 6 42 c6 47 53 104 117 142 19 12 55 40 80 63 62 57 162 125 185
125 11 0 47 9 80 19 64 21 166 19 194 -3z m1431 -40 c0 -2 -8 -10 -17 -17 -16
-13 -17 -12 -4 4 13 16 21 21 21 13z m-65 -76 c-3 -5 -16 -15 -28 -21 -19 -9
-19 -8 3 10 28 23 34 26 25 11z m-240 -180 c-3 -5 -14 -10 -23 -9 -14 0 -13 2
3 9 27 11 27 11 20 0z m-6748 -162 c-3 -8 -6 -5 -6 6 -1 11 2 17 5 13 3 -3 4
-12 1 -19z m-10 -195 c-3 -10 -5 -2 -5 17 0 19 2 27 5 18 2 -10 2 -26 0 -35z
m6526 30 c-13 -2 -33 -2 -45 0 -13 2 -3 4 22 4 25 0 35 -2 23 -4z m-6516 -140
c-2 -16 -4 -3 -4 27 0 30 2 43 4 28 2 -16 2 -40 0 -55z m7357 -129 c5 -14 4
-15 -9 -4 -17 14 -19 20 -6 20 5 0 12 -7 15 -16z m4811 -14 c38 -31 -1 -120
-51 -120 -29 0 -69 38 -69 65 0 11 8 34 19 51 17 28 22 31 53 24 18 -5 40 -14
48 -20z m-12086 -160 c0 -9 -4 -8 -9 5 -5 11 -9 27 -9 35 0 9 4 8 9 -5 5 -11
9 -27 9 -35z m111 0 c0 -5 -7 -7 -15 -4 -8 4 -12 10 -9 15 6 11 24 2 24 -11z
m7313 -40 c3 -11 2 -18 -3 -15 -4 3 -10 14 -13 25 -3 11 -2 18 3 15 4 -3 10
-14 13 -25z m-7375 -85 c-3 -3 -9 2 -12 12 -6 14 -5 15 5 6 7 -7 10 -15 7 -18z
m7439 -97 c-3 -7 -5 -2 -5 12 0 14 2 19 5 13 2 -7 2 -19 0 -25z m22 -68 c0 -9
-4 -8 -9 5 -5 11 -9 27 -9 35 0 9 4 8 9 -5 5 -11 9 -27 9 -35z m-54 -70 c-3
-5 -10 -10 -16 -10 -5 0 -9 5 -9 10 0 6 7 10 16 10 8 0 12 -4 9 -10z m-6906
-116 c9 -8 -45 -2 -64 6 -14 7 -8 8 20 3 22 -3 42 -7 44 -9z m54 -11 c-7 -2
-21 -2 -30 0 -10 3 -4 5 12 5 17 0 24 -2 18 -5z m60 -10 c-7 -2 -21 -2 -30 0
-10 3 -4 5 12 5 17 0 24 -2 18 -5z m90 -20 c-13 -2 -33 -2 -45 0 -13 2 -3 4
22 4 25 0 35 -2 23 -4z m64 1 c-3 -3 -12 -4 -19 -1 -8 3 -5 6 6 6 11 1 17 -2
13 -5z m71 -1 c-10 -2 -26 -2 -35 0 -10 3 -2 5 17 5 19 0 27 -2 18 -5z m809
-120 c-3 -10 -5 -4 -5 12 0 17 2 24 5 18 2 -7 2 -21 0 -30z m5860 -90 c-3 -10
-5 -2 -5 17 0 19 2 27 5 18 2 -10 2 -26 0 -35z m-5870 -5 c-3 -8 -6 -5 -6 6
-1 11 2 17 5 13 3 -3 4 -12 1 -19z m5674 -71 c-10 -9 -11 -8 -5 6 3 10 9 15
12 12 3 -3 0 -11 -7 -18z m36 -29 c-3 -8 -6 -5 -6 6 -1 11 2 17 5 13 3 -3 4
-12 1 -19z m-5670 -40 c-3 -8 -6 -5 -6 6 -1 11 2 17 5 13 3 -3 4 -12 1 -19z
m5773 -72 c-6 -19 -17 -40 -25 -46 -8 -7 -6 3 6 27 10 20 20 51 20 68 1 23 3
25 6 7 2 -12 -1 -38 -7 -56z m-120 8 c0 -8 -4 -14 -10 -14 -5 0 -10 9 -10 21
0 11 5 17 10 14 6 -3 10 -13 10 -21z m-5750 -149 c-6 -81 -7 -84 -9 -29 -1 55
8 129 14 122 2 -2 -1 -43 -5 -93z m4084 -65 c5 -17 4 -20 -2 -10 -5 8 -13 26
-16 40 -5 17 -4 20 2 10 5 -8 13 -26 16 -40z m1700 35 c-4 -8 -11 -15 -16 -15
-6 0 -5 6 2 15 7 8 14 15 16 15 2 0 1 -7 -2 -15z m-114 -19 c0 -2 -7 -7 -16
-10 -8 -3 -12 -2 -9 4 6 10 25 14 25 6z m-5658 -118 c2 -25 0 -44 -4 -41 -5 2
-7 30 -7 61 1 62 6 53 11 -20z m2542 -44 c3 -8 2 -12 -4 -9 -6 3 -10 10 -10
16 0 14 7 11 14 -7z m1833 1 c0 -8 -4 -12 -9 -9 -5 3 -6 10 -3 15 9 13 12 11
12 -6z m-1749 -122 c23 -25 24 -28 7 -32 -23 -4 -52 33 -58 74 -4 29 -4 29 10
8 8 -12 26 -35 41 -50z m1677 29 c-3 -3 -11 0 -18 7 -9 10 -8 11 6 5 10 -3 15
-9 12 -12z m4800 -38 c0 -10 -8 -20 -18 -22 -22 -4 -35 27 -16 39 20 12 34 5
34 -17z m-4622 -41 c38 -19 34 -26 -5 -9 -18 8 -49 19 -68 25 l-35 10 40 -6
c22 -3 52 -12 68 -20z m947 2 c-14 -8 -29 -14 -35 -14 -5 0 1 6 15 14 14 8 30
14 35 14 6 0 -1 -6 -15 -14z m-5351 -45 c0 -9 -4 -8 -9 5 -5 11 -9 27 -9 35 0
9 4 8 9 -5 5 -11 9 -27 9 -35z m1916 -20 c-3 -5 -10 -10 -16 -10 -5 0 -9 5 -9
10 0 6 7 10 16 10 8 0 12 -4 9 -10z m785 -16 c0 -2 -9 0 -20 6 -11 6 -20 13
-20 16 0 2 9 0 20 -6 11 -6 20 -13 20 -16z m320 11 c11 -13 10 -14 -4 -9 -9 3
-16 10 -16 15 0 13 6 11 20 -6z m1547 9 c-3 -3 -12 -4 -19 -1 -8 3 -5 6 6 6
11 1 17 -2 13 -5z m598 -9 c-16 -8 -39 -14 -50 -14 -11 0 -2 6 20 14 52 17 68
17 30 0z m-88 -21 c-3 -3 -12 -4 -19 -1 -8 3 -5 6 6 6 11 1 17 -2 13 -5z
m-2168 -70 c10 -9 -35 -3 -49 6 -11 8 -7 9 15 4 17 -4 32 -8 34 -10z m-2841
-29 c-3 -3 -9 2 -12 12 -6 14 -5 15 5 6 7 -7 10 -15 7 -18z m3015 -22 c-7 -2
-21 -2 -30 0 -10 3 -4 5 12 5 17 0 24 -2 18 -5z m182 -4 c-22 -4 -69 -7 -105
-7 l-65 2 75 6 c114 10 144 10 95 -1z m-3035 -181 c0 -6 -6 -5 -15 2 -8 7 -15
14 -15 16 0 2 7 1 15 -2 8 -4 15 -11 15 -16z m16093 -30 c2 -7 0 -23 -4 -36
-7 -18 -15 -23 -36 -20 -31 3 -42 30 -23 53 15 18 56 20 63 3z m-16042 -25
c13 -16 12 -17 -3 -4 -17 13 -22 21 -14 21 2 0 10 -8 17 -17z m1042 -20 c-7
-2 -21 -2 -30 0 -10 3 -4 5 12 5 17 0 24 -2 18 -5z m-210 -40 c-7 -2 -19 -2
-25 0 -7 3 -2 5 12 5 14 0 19 -2 13 -5z m-538 -24 c53 -7 51 -7 -20 -3 -44 3
-96 9 -115 14 -37 10 2 7 135 -11z m492 15 c-3 -3 -12 -4 -19 -1 -8 3 -5 6 6
6 11 1 17 -2 13 -5z m-44 -11 c-7 -2 -19 -2 -25 0 -7 3 -2 5 12 5 14 0 19 -2
13 -5z m-55 -10 c-10 -2 -28 -2 -40 0 -13 2 -5 4 17 4 22 1 32 -1 23 -4z
m-135 -10 c-35 -2 -91 -2 -125 0 -35 2 -7 3 62 3 69 0 97 -1 63 -3z m9285
-485 c-2 -13 -10 -23 -18 -23 -8 0 -16 10 -18 23 -3 17 2 22 18 22 16 0 21 -5
18 -22z m3035 -1025 c4 -2 7 -17 7 -33 0 -40 -32 -62 -71 -48 -29 10 -33 17
-29 53 3 38 50 52 93 28z m-13621 -625 c35 -29 26 -73 -18 -80 -24 -4 -54 18
-54 39 0 44 39 67 72 41z"/>
<path d="M13745 15679 c-104 -7 -125 -12 -220 -50 -38 -15 -101 -35 -139 -43
-68 -16 -202 -89 -229 -125 -7 -9 -30 -31 -52 -50 -266 -226 -446 -440 -484
-573 -10 -35 -31 -94 -46 -131 -16 -41 -30 -101 -35 -150 -4 -45 -14 -118 -21
-162 -41 -243 23 -540 174 -813 36 -64 74 -136 86 -160 33 -66 282 -349 376
-428 120 -101 282 -178 505 -241 47 -13 114 -32 150 -43 82 -24 329 -44 440
-36 75 5 231 41 399 90 29 8 82 31 117 50 68 38 252 169 317 226 76 67 250
313 262 373 4 17 23 63 42 100 46 93 103 265 103 314 0 22 7 62 14 89 12 40
13 86 6 254 -7 191 -10 212 -40 305 -75 234 -157 405 -259 543 -84 113 -304
313 -432 391 -192 118 -388 210 -514 240 -49 12 -101 25 -115 28 -34 8 -293
10 -405 2z"/>
<path d="M2640 6900 c0 -5 12 -10 28 -9 24 0 25 1 7 9 -27 12 -35 12 -35 0z"/>
</g>
</svg>
